<?xml version="1.0" encoding="UTF-8"?>
<!-- Generator: Adobe Illustrator 27.6.1, SVG Export Plug-In . SVG Version: 6.00 Build 0)  -->
<svg version="1.1" id="Layer_1" xmlns="http://www.w3.org/2000/svg" xmlns:xlink="http://www.w3.org/1999/xlink" x="0px" y="0px" viewBox="0 0 159 187" style="enable-background:new 0 0 159 187;" xml:space="preserve">
<style type="text/css">
	.st0{fill:#90A960;}
</style>
<path class="st0" d="M92.7,55.6c-2.5-5.1-7.5-8.3-13.2-8.3l0,0c-5.6,0-10.7,3.2-13.2,8.3L58,72.8c-0.2,0.4-0.1,1.1,0.2,1.4l8.7,8.7  c0.6,0.6,1.3,0.4,1.6-0.3l10.1-21c0.1-0.1,0.2-0.5,0.8-0.5s0.7,0.3,0.8,0.5l17,35.5L83.3,111c-2.2,2.2-5.7,2.2-7.9,0  c0,0-47.4-47.3-47.9-47.8c-4.6-4.6-7.1-10.6-7.1-17.1c0-6.4,2.5-12.5,7.1-17.1s10.6-7.1,17.1-7.1s12.5,2.5,17,7  c0.1,0.1,7.8,7.8,7.8,7.8c3,3,7.1,4.5,11.3,4.1c3.3-0.3,6.4-1.9,8.8-4.3L97,29c9.4-9.4,24.7-9.4,34.1,0c4.8,4.8,7.3,11.2,7.1,17.9  c-0.2,6.2-3,12.1-7.4,16.6l-12.3,12.3c-0.4,0.4-0.5,1-0.3,1.5l5.3,11c0.4,0.7,1.1,0.9,1.7,0.3l15.7-15.7  c7.2-7.2,11.1-16.7,11.1-26.8s-3.9-19.7-11.1-26.8c-14.8-14.8-38.9-14.8-53.6,0l-7.8,7.8c-0.1,0.1-0.3,0.1-0.4,0l-7.8-7.8  C64.4,12,54.9,8,44.7,8s-19.6,4-26.8,11.1C10.8,26.3,6.8,35.8,6.8,46c0,10.1,3.9,19.7,11.1,26.8C18,72.8,31,85.9,45,99.9l-27.8,57.6  c-2.8,5.8-1.7,12.8,2.9,17.2c4.7,4.5,11.4,5.4,17.1,2.4L79,154.5c0.3-0.1,0.5-0.1,0.8,0l41.9,22.6c2.2,1.2,4.6,1.8,7,1.8  c3.6,0,7.2-1.4,10-4.1c4.7-4.5,5.9-11.1,3.1-16.9L92.7,55.6z M129.3,164.9c-0.4,0.4-0.8,0.2-1,0.1l-41.9-22.6  c-2.2-1.2-4.6-1.8-7-1.8s-4.8,0.6-6.9,1.8l-41.8,22.5c-0.2,0.1-0.5,0.3-1-0.1c-0.4-0.4-0.3-0.8-0.2-1l25.8-53.6  c3.7,3.7,7.3,7.3,10.5,10.5c3.8,3.8,8.7,5.7,13.7,5.7s9.9-1.9,13.7-5.7l10.5-10.5l25.8,53.7C129.6,164.1,129.8,164.4,129.3,164.9z"/>
</svg>